<svg width="230" height="92" viewBox="0 0 230 92" fill="none" xmlns="http://www.w3.org/2000/svg">
<path fill-rule="evenodd" clip-rule="evenodd" d="M121.153 77.0732V54.4215L96.7188 44.2211L109.543 30.7989L92.7358 14.7316L87.9691 24.5661L88.152 15.1115L66.8523 22.4416L67.4008 34.7665L71.0182 33.7535L74.7793 77.2421L89.7974 74.8643L89.7713 60.3447L121.153 77.0732Z" fill="#0B0000"/>
<path fill-rule="evenodd" clip-rule="evenodd" d="M70.8606 25.6053L83.8023 21.4548L84.5989 35.8197L94.1322 21.3986L103.443 30.9517L90.4234 45.7387L117.221 57.1771V70.332L86.0877 53.5472L86.1399 71.134L78.0824 72.3158L74.6478 28.3207L71.0173 29.3337L70.8606 25.6053Z" fill="white"/>
<path fill-rule="evenodd" clip-rule="evenodd" d="M168.987 16.8969H154.883L154.478 19.3872H139.642L132.708 65.0706L149.633 67.9408L150.56 61.3844L154.987 70.1778L157.677 64.5641L158.67 73.7796L177.854 77.4236L168.987 16.8969Z" fill="#0B0000"/>
<path fill-rule="evenodd" clip-rule="evenodd" d="M158.592 21.1198H165.775L173.049 72.0089L162.445 70.2643L159.624 50.1309L155.641 61.2317L149.66 47.3593H149.595L147.231 63.4406L137.293 61.5694L143.209 23.4694H153.264L155.772 38.2423L158.592 21.1198Z" fill="white"/>
<path fill-rule="evenodd" clip-rule="evenodd" d="M186.945 21.062L208.166 26.0848L209.746 34.5264L211.457 26.9149L229.518 31.6281L212.175 87.9199L198.868 83.4036L198.763 77.7618L185.991 75.8343L190.301 34.5264L187.101 33.7526L186.945 21.062Z" fill="#0B0000"/>
<path fill-rule="evenodd" clip-rule="evenodd" d="M190.719 26.3374L204.549 29.3342L209.211 53.1115L213.978 31.7963L224.504 34.3148L209.681 82.6855L202.316 80.3077L201.676 51.0715L197.967 73.6248L189.936 72.26L193.54 31.3039L190.51 30.4316L190.719 26.3374Z" fill="white"/>
<path fill-rule="evenodd" clip-rule="evenodd" d="M184.907 69.3334C180.324 71.1905 175.453 70.9795 171.535 68.7284C167.904 66.6602 165.371 63.0725 164.391 58.6406C162.432 49.805 167.852 39.7172 176.471 36.1576C181.107 34.2723 186.018 34.4975 189.961 36.7626C193.553 38.8168 196.06 42.3201 197.013 46.6253C199.011 55.5875 193.592 65.7738 184.907 69.3334Z" fill="#0B0000"/>
<path fill-rule="evenodd" clip-rule="evenodd" d="M193.654 47.443C192.087 40.352 185.061 36.7924 177.853 39.7189C170.866 42.6031 166.282 50.7493 167.862 57.8403C169.482 65.1564 176.442 68.7019 183.651 65.7755C190.69 62.9053 195.274 54.7028 193.654 47.443Z" fill="white"/>
<path fill-rule="evenodd" clip-rule="evenodd" d="M188.418 48.6929C188.275 52.6042 185.114 55.5588 181.249 55.39C177.449 55.2211 174.523 52.0133 174.667 48.102C174.811 44.4299 177.958 41.4753 181.823 41.6441C185.637 41.813 188.562 45.0208 188.418 48.6929Z" fill="#0B0000"/>
<path fill-rule="evenodd" clip-rule="evenodd" d="M183.507 41.813C181.195 41.7145 179.263 43.431 179.171 45.6399C179.093 47.8488 180.895 49.7341 183.206 49.8326C185.518 49.9311 187.451 48.2146 187.542 46.0057C187.62 43.7968 185.818 41.9115 183.507 41.813Z" fill="white"/>
<path fill-rule="evenodd" clip-rule="evenodd" d="M67.9077 74.2597C63.2194 76.3983 58.1393 76.3983 53.9734 74.2456C50.121 72.2478 47.3393 68.646 46.1509 64.0734C43.7742 54.9705 49.0109 44.2355 57.839 40.1413C62.5795 37.9887 67.6987 37.9887 71.8907 40.1695C75.704 42.1392 78.4465 45.6706 79.6088 50.1025C82.0378 59.332 76.788 70.1796 67.9077 74.2597Z" fill="#0B0000"/>
<path fill-rule="evenodd" clip-rule="evenodd" d="M76.2529 50.6648C74.3201 43.2924 66.8241 39.8876 59.3803 43.2924C52.1586 46.6409 47.6792 55.3921 49.612 62.7645C51.597 70.376 59.0408 73.7668 66.4846 70.376C73.7586 67.0275 78.2379 58.206 76.2529 50.6648Z" fill="white"/>
<path fill-rule="evenodd" clip-rule="evenodd" d="M71.2133 52.0708C71.2133 55.9821 68.1705 59.0633 64.305 59.0633C60.5047 59.0633 57.4619 55.9821 57.4619 52.0708C57.4619 48.3987 60.5047 45.3034 64.3703 45.3034C68.1705 45.3034 71.2133 48.3846 71.2133 52.0708Z" fill="#0B0000"/>
<path fill-rule="evenodd" clip-rule="evenodd" d="M66.0538 45.4012C63.7424 45.4012 61.8618 47.2021 61.8618 49.411C61.8618 51.6199 63.7293 53.4208 66.0538 53.4208C68.3653 53.4208 70.2459 51.6199 70.2459 49.411C70.2459 47.2021 68.3653 45.4012 66.0538 45.4012Z" fill="white"/>
<path fill-rule="evenodd" clip-rule="evenodd" d="M42.0377 60.6687C52.1195 52.6914 56.9253 40.6339 53.2818 31.5872C51.6885 27.6337 48.8939 24.3696 45.4723 22.3155C43.0694 20.599 40.2095 19.5157 37.2058 19.1499C29.8404 17.757 20.9993 19.1921 12.3018 23.1737C9.1023 24.6369 6.11173 26.3253 3.42153 28.1684L0 30.4898L2.0503 34.2323L8.42322 45.8396C8.42322 45.8396 10.3821 49.4132 10.3952 49.3991L13.8559 47.5842L14.3391 47.3309L30.1799 85.445L31.7079 89.1031L35.26 87.879L43.8399 84.9244L47.601 83.6301L46.6085 79.5218L42.0377 60.6687Z" fill="black"/>
<path fill-rule="evenodd" clip-rule="evenodd" d="M49.4528 33.3722C48.1861 30.2347 46.0052 27.7725 43.1583 26.042C41.0949 24.5647 38.7051 23.8331 36.4719 23.5658C30.1251 22.3699 22.2243 23.4954 13.9055 27.2942C10.9411 28.6448 8.17253 30.1925 5.62598 31.9371L11.9989 43.5444C13.6313 42.6861 15.3943 41.7716 16.3476 41.2229L33.9646 83.5859L42.5445 80.6314L37.2555 58.7112C47.4025 52.0001 52.5218 40.9837 49.4528 33.3722Z" fill="white"/>
<path fill-rule="evenodd" clip-rule="evenodd" d="M139.579 44.5166L133.546 38.6637L136.51 35.273L139.174 32.2199L136.719 28.9699C131.926 22.6105 124.26 20.0639 116.216 22.1603C105.024 25.0586 98.7165 35.4418 101.211 46.824C102.216 51.4106 104.88 55.336 108.733 57.8826C113.33 60.9356 119.115 61.7657 125.005 60.2322C131.221 58.6142 135.792 55.8988 139.801 51.4388L143.013 47.8651L139.579 44.5166Z" fill="#0B0000"/>
<path fill-rule="evenodd" clip-rule="evenodd" d="M130.303 41.7447C128.788 43.6722 127.052 45.4308 123.97 46.2328C122.938 46.5001 121.541 46.7534 120.653 46.5845L133.62 31.7131C129.964 26.8592 123.957 24.6081 117.153 26.3808C108.69 28.5757 102.97 36.1732 105.086 45.8529C106.784 53.6333 114.776 58.4029 124.048 55.997C129.663 54.5338 133.568 52.1982 137.068 48.301L130.303 41.7447Z" fill="white"/>
<path fill-rule="evenodd" clip-rule="evenodd" d="M110.05 19.7113L125.93 0L134.719 14.1398L114.647 25.7611L110.05 19.7113Z" fill="#0B0000"/>
<path fill-rule="evenodd" clip-rule="evenodd" d="M125.25 6.27441L129.899 13.084L116.618 20.175L115.691 18.6696L125.25 6.27441Z" fill="white"/>
<path fill-rule="evenodd" clip-rule="evenodd" d="M115.407 41.9684C114.453 40.0972 114.636 37.6913 116.06 36.0171C117.431 34.3991 119.52 33.9348 121.31 34.6805L115.407 41.9684ZM116.06 36.0171C114.649 37.6913 114.453 40.0972 115.407 41.9684L121.31 34.6805C119.52 33.9348 117.418 34.3991 116.06 36.0171ZM124.587 33.5831C121.558 30.6144 116.882 30.8536 114.127 34.1177C111.371 37.3818 111.593 42.4187 114.623 45.3873C114.871 45.6406 115.146 45.8516 115.42 46.0486L125.123 34.1458C124.94 33.9489 124.77 33.766 124.587 33.5831ZM115.407 41.9684C114.453 40.0972 114.636 37.6913 116.06 36.0171C117.431 34.3991 119.52 33.9348 121.31 34.6805L115.407 41.9684Z" fill="black"/>
<path fill-rule="evenodd" clip-rule="evenodd" d="M42.783 40.6186C42.0256 36.1305 36.606 33.612 31.1733 36.7495L32.5315 41.8989L34.6732 49.4964L35.6527 52.9575C39.7272 50.1858 43.8278 46.8373 42.783 40.6186ZM37.3895 47.4845C36.8019 45.4022 35.5351 40.9141 35.5351 40.9141C35.5482 40.9422 35.2739 39.9433 34.9866 38.8318C36.1359 38.6067 37.2328 38.7192 38.147 39.1976C38.6563 39.4649 39.5313 40.0699 39.7141 41.2236C40.145 43.7983 39.3223 45.6414 37.3895 47.4845Z" fill="black"/>
<path fill-rule="evenodd" clip-rule="evenodd" d="M45.1101 91.8461C45.1232 91.8883 45.1362 91.9164 45.1493 91.9586C45.1493 91.9727 45.1623 91.9868 45.1623 92.0008C45.1493 91.9446 45.1232 91.9023 45.1101 91.8461Z" fill="black"/>
<path fill-rule="evenodd" clip-rule="evenodd" d="M215.999 82.8136H219.903V83.4327H218.284V88.0052H217.618V83.4327H215.999V82.8136Z" fill="black"/>
<path fill-rule="evenodd" clip-rule="evenodd" d="M220.481 88.0052V82.8136H221.422L222.806 87.2033L224.177 82.8136H225.104V88.0052H224.491V84.9381C224.491 84.8255 224.491 84.6567 224.504 84.4175C224.504 84.1783 224.504 83.911 224.504 83.6296L223.132 88.0052H222.493L221.108 83.6296V83.7844C221.108 83.911 221.108 84.108 221.121 84.3612C221.121 84.6145 221.134 84.8115 221.134 84.9381V88.0052H220.481Z" fill="black"/>
</svg>
