<svg width="101" height="101" viewBox="0 0 101 101" fill="none" xmlns="http://www.w3.org/2000/svg">
<g filter="url(#filter0_dii_77_42)">
<mask id="path-1-inside-1_77_42" fill="white">
<path d="M25.7799 75.0626C32.3688 81.6601 41.3054 85.3665 50.6236 85.3665C59.9418 85.3665 68.8784 81.6601 75.4673 75.0626C82.0563 68.4652 85.7579 59.5172 85.7579 50.187C85.7579 40.8568 82.0563 31.9088 75.4673 25.3114L50.6236 50.187L25.7799 75.0626Z"/>
</mask>
<path d="M25.7799 75.0626C32.3688 81.6601 41.3054 85.3665 50.6236 85.3665C59.9418 85.3665 68.8784 81.6601 75.4673 75.0626C82.0563 68.4652 85.7579 59.5172 85.7579 50.187C85.7579 40.8568 82.0563 31.9088 75.4673 25.3114L50.6236 50.187L25.7799 75.0626Z" fill="white" stroke="black" stroke-width="5" mask="url(#path-1-inside-1_77_42)"/>
<mask id="path-2-inside-2_77_42" fill="white">
<path d="M75.964 25.8089C69.3751 19.2115 60.4385 15.5051 51.1203 15.5051C41.8021 15.5051 32.8655 19.2115 26.2766 25.8089C19.6876 32.4063 15.986 41.3543 15.986 50.6845C15.986 60.0147 19.6876 68.9627 26.2766 75.5601L51.1203 50.6845L75.964 25.8089Z"/>
</mask>
<path d="M75.964 25.8089C69.3751 19.2115 60.4385 15.5051 51.1203 15.5051C41.8021 15.5051 32.8655 19.2115 26.2766 25.8089C19.6876 32.4063 15.986 41.3543 15.986 50.6845C15.986 60.0147 19.6876 68.9627 26.2766 75.5601L51.1203 50.6845L75.964 25.8089Z" fill="#FF3533" stroke="black" stroke-width="5" mask="url(#path-2-inside-2_77_42)"/>
<circle cx="35.1569" cy="35.1569" r="34.1569" transform="matrix(0.706652 -0.70756 0.706652 0.70756 1.43286 50.6845)" stroke="black" stroke-width="2"/>
<circle cx="12.3049" cy="12.3049" r="9.80492" transform="matrix(0.706652 -0.70756 0.706652 0.70756 33.2327 49.6895)" fill="#FFFFFD" stroke="black" stroke-width="5"/>
<circle cx="5.97668" cy="5.97668" r="5.47668" transform="matrix(0.706652 -0.70756 0.706652 0.70756 42.1768 49.6895)" fill="white" stroke="black"/>
<g opacity="0.3" filter="url(#filter1_f_77_42)">
<ellipse cx="7.45228" cy="4.07194" rx="7.45228" ry="4.07194" transform="matrix(0.992888 -0.121639 0.121257 0.992307 39.8411 19.4412)" fill="white"/>
</g>
</g>
<g filter="url(#filter2_f_77_42)">
<ellipse cx="52.9801" cy="95.8172" rx="12.6484" ry="0.703589" fill="url(#paint0_radial_77_42)"/>
</g>
<defs>
<filter id="filter0_dii_77_42" x="11.9861" y="11.1051" width="78.6686" height="82.7589" filterUnits="userSpaceOnUse" color-interpolation-filters="sRGB">
<feFlood flood-opacity="0" result="BackgroundImageFix"/>
<feColorMatrix in="SourceAlpha" type="matrix" values="0 0 0 0 0 0 0 0 0 0 0 0 0 0 0 0 0 0 127 0" result="hardAlpha"/>
<feOffset dy="4"/>
<feGaussianBlur stdDeviation="2"/>
<feComposite in2="hardAlpha" operator="out"/>
<feColorMatrix type="matrix" values="0 0 0 0 0 0 0 0 0 0 0 0 0 0 0 0 0 0 0.25 0"/>
<feBlend mode="normal" in2="BackgroundImageFix" result="effect1_dropShadow_77_42"/>
<feBlend mode="normal" in="SourceGraphic" in2="effect1_dropShadow_77_42" result="shape"/>
<feColorMatrix in="SourceAlpha" type="matrix" values="0 0 0 0 0 0 0 0 0 0 0 0 0 0 0 0 0 0 127 0" result="hardAlpha"/>
<feOffset dx="6" dy="-11"/>
<feGaussianBlur stdDeviation="2.2"/>
<feComposite in2="hardAlpha" operator="arithmetic" k2="-1" k3="1"/>
<feColorMatrix type="matrix" values="0 0 0 0 0 0 0 0 0 0 0 0 0 0 0 0 0 0 0.25 0"/>
<feBlend mode="normal" in2="shape" result="effect2_innerShadow_77_42"/>
<feColorMatrix in="SourceAlpha" type="matrix" values="0 0 0 0 0 0 0 0 0 0 0 0 0 0 0 0 0 0 127 0" result="hardAlpha"/>
<feOffset dx="-4" dy="5"/>
<feGaussianBlur stdDeviation="5.65"/>
<feComposite in2="hardAlpha" operator="arithmetic" k2="-1" k3="1"/>
<feColorMatrix type="matrix" values="0 0 0 0 1 0 0 0 0 1 0 0 0 0 1 0 0 0 0.25 0"/>
<feBlend mode="normal" in2="effect2_innerShadow_77_42" result="effect3_innerShadow_77_42"/>
</filter>
<filter id="filter1_f_77_42" x="38.3181" y="16.4334" width="18.832" height="12.2839" filterUnits="userSpaceOnUse" color-interpolation-filters="sRGB">
<feFlood flood-opacity="0" result="BackgroundImageFix"/>
<feBlend mode="normal" in="SourceGraphic" in2="BackgroundImageFix" result="shape"/>
<feGaussianBlur stdDeviation="1" result="effect1_foregroundBlur_77_42"/>
</filter>
<filter id="filter2_f_77_42" x="36.3318" y="91.1136" width="33.2966" height="9.40717" filterUnits="userSpaceOnUse" color-interpolation-filters="sRGB">
<feFlood flood-opacity="0" result="BackgroundImageFix"/>
<feBlend mode="normal" in="SourceGraphic" in2="BackgroundImageFix" result="shape"/>
<feGaussianBlur stdDeviation="2" result="effect1_foregroundBlur_77_42"/>
</filter>
<radialGradient id="paint0_radial_77_42" cx="0" cy="0" r="1" gradientUnits="userSpaceOnUse" gradientTransform="translate(52.9801 95.8172) scale(11.243 0.625412)">
<stop/>
<stop offset="1" stop-color="#666666"/>
</radialGradient>
</defs>
</svg>
